HIERARCHY
ROOT root     
{
	OFFSET 0.0000 0.0000 0.0000
	CHANNELS 6 Xposition Yposition Zposition Zrotation Yrotation Xrotation
	JOINT pelvis   
	{
		OFFSET 0.0000 0.0000 0.0000
		CHANNELS 3 Zrotation Yrotation Xrotation
		JOINT thorax   
		{
			OFFSET 0.0000 23.0750 -5.0000
			CHANNELS 3 Zrotation Yrotation Xrotation
			JOINT rclavicle
			{
				OFFSET 0.0000 28.0009 0.0000
				CHANNELS 3 Zrotation Yrotation Xrotation
				JOINT rhumerus 
				{
					OFFSET -18.5725 5.5939 0.0000
					CHANNELS 3 Zrotation Yrotation Xrotation
					JOINT rradius  
					{
						OFFSET -24.8459 0.0000 0.0000
						CHANNELS 3 Zrotation Yrotation Xrotation
						JOINT rhand    
						{
							OFFSET -24.5477 0.0000 0.0000
							CHANNELS 3 Zrotation Yrotation Xrotation
							End Site
							{
								OFFSET -8.1826 0.0000 0.0000
							}
						}
					}
				}
			}
			JOINT lclavicle
			{
				OFFSET 0.0000 28.0009 0.0000
				CHANNELS 3 Zrotation Yrotation Xrotation
				JOINT lhumerus 
				{
					OFFSET 18.5725 5.5939 0.0000
					CHANNELS 3 Zrotation Yrotation Xrotation
					JOINT lradius  
					{
						OFFSET 24.8459 0.0000 0.0000
						CHANNELS 3 Zrotation Yrotation Xrotation
						JOINT lhand    
						{
							OFFSET 24.5477 0.0000 0.0000
							CHANNELS 3 Zrotation Yrotation Xrotation
							End Site
							{
								OFFSET 8.1826 0.0000 0.0000
							}
						}
					}
				}
			}
			JOINT head     
			{
				OFFSET 0.0000 35.2030 0.0000
				CHANNELS 3 Zrotation Yrotation Xrotation
				End Site
				{
					OFFSET 0.0000 11.7343 0.0000
				}
			}
		}
		JOINT rfemur   
		{
			OFFSET -8.2817 0.0000 0.0000
			CHANNELS 3 Zrotation Yrotation Xrotation
			JOINT rtibia   
			{
				OFFSET 0.0000 -43.3627 0.0000
				CHANNELS 3 Zrotation Yrotation Xrotation
				JOINT rfoot    
				{
					OFFSET 0.0000 -38.2947 0.0000
					CHANNELS 3 Zrotation Yrotation Xrotation
					JOINT rtoes    
					{
						OFFSET 0.0000 0.0000 16.6054
						CHANNELS 3 Zrotation Yrotation Xrotation
						End Site
						{
							OFFSET 0.0000 0.0000 5.5351
						}
					}
				}
			}
		}
		JOINT lfemur   
		{
			OFFSET 8.2817 0.0000 0.0000
			CHANNELS 3 Zrotation Yrotation Xrotation
			JOINT ltibia   
			{
				OFFSET 0.0000 -43.3627 0.0000
				CHANNELS 3 Zrotation Yrotation Xrotation
				JOINT lfoot    
				{
					OFFSET 0.0000 -38.2947 0.0000
					CHANNELS 3 Zrotation Yrotation Xrotation
					JOINT ltoes    
					{
						OFFSET 0.0000 0.0000 16.6054
						CHANNELS 3 Zrotation Yrotation Xrotation
						End Site
						{
							OFFSET 0.0000 0.0000 5.5351
						}
					}
				}
			}
		}
	}
}
MOTION
Frames: 13
Frame Time: .0333333
-74.293 77.068 -18.501 -65.7279 85.4231 -43.7817 0 -0 0 0.110916 4.31068 21.6769 23.833 -5.60633 -2.49627e-05 47.2154 -5.46553 8.43073 -180 78.6673 -180 -2.83747 4.4521 -0.110299 -21.9467 12.4464 -6.06676e-05 -55.9731 29.7036 5.06499 0 -89.2905 0 7.55572 1.52606 0.100796 7.78889 -8.96227 -17.6943 4.08643 -8.84236 -13.8435 -0 -0 51.6185 -4.48337e-08 1.34591 -0.185399 -0.00439998 -1.81181e-08 -76.2251 -0.474012 8.74562 -62.0444 -0 -0 55.885 1.11226e-06 8.71726 -1.48499 -0.227703 6.0596e-07 -21.711 
-73.006 76.832 -18.461 -63.2239 85.001 -41.5365 0 -0 0 -0.133811 4.12341 21.5403 24.1052 -5.59389 -2.05468e-05 47.4021 -5.82903 8.90047 -180 79.7849 -180 -2.64857 4.56049 -0.105499 -22.1265 12.1919 7.1114e-06 -55.4169 28.7078 5.15284 1.09749e-05 -88.6319 -1.12364e-05 7.91961 1.80641 0.125101 7.85801 -8.64791 -17.4795 4.10033 -7.87027 -13.8671 -0 -0 53.3894 4.05077e-07 0.880703 1.73341 0.0265994 -1.11062e-07 -76.7398 -0.159879 9.12557 -61.6795 -0 -0 57.5993 6.19086e-06 9.18982 -2.62096 -0.423902 -2.1718e-06 -21.8018 
-71.749 76.625 -18.43 -61.2825 84.6579 -39.8237 0 -0 0 -0.387107 3.86692 21.4151 24.3607 -5.58311 3.20818e-05 47.6666 -6.20476 9.30548 -180 81.0143 -180 -2.51897 4.69121 -0.103199 -22.3116 11.9174 0.000108135 -54.7726 27.5284 5.31197 -4.3119e-06 -87.9606 4.16096e-06 8.33887 2.13514 0.155703 7.88808 -8.34857 -17.2345 4.11343 -7.09384 -14.0759 -0 -0 55.3018 -2.83325e-07 0.261696 3.58854 0.0163998 -1.84841e-07 -76.603 0.0930633 9.43 -61.2529 -0 -0 59.09 7.09931e-06 9.67987 -3.86923 -0.659498 -1.43549e-06 -22.2632 
-70.52 76.451 -18.409 -59.7311 84.3903 -38.4714 0 -0 0 -0.642718 3.54117 21.3097 24.5942 -5.58217 4.24853e-07 48.0059 -6.57521 9.64609 -180 82.361 -180 -2.4791 4.83276 -0.104601 -22.5116 11.6056 4.07686e-05 -54.0432 26.1978 5.51265 0 -87.1953 0 8.8074 2.50006 0.192599 7.87333 -8.0644 -16.9637 4.1173 -6.54201 -14.456 -0 -0 57.3251 1.2766e-08 -0.529397 5.3018 -0.0488988 -2.65852e-08 -75.8363 0.295306 9.64532 -60.7631 -0 -0 60.3645 -3.20984e-06 10.1755 -5.17402 -0.927282 -6.2661e-06 -23.0381 
-69.321 76.312 -18.398 -58.465 84.1897 -37.3783 0 -0 0 -0.893697 3.15412 21.2341 24.801 -5.59262 7.06074e-05 48.4164 -6.93411 9.91901 -180 83.8273 -180 -2.55905 4.9682 -0.111003 -22.7208 11.2582 -5.88557e-05 -53.2467 24.7271 5.74096 0 -86.3809 0 9.31344 2.88898 0.235404 7.81174 -7.79486 -16.6782 4.10941 -6.22053 -14.9973 -0 -0 59.4305 -2.30958e-06 -1.51084 6.78882 -0.178605 -2.64007e-06 -74.4716 0.456289 9.7713 -60.2138 -0 -0 61.4385 1.154e-05 10.6625 -6.47289 -1.21591 1.84194e-06 -24.0399 
-68.154 76.208 -18.397 -57.3754 84.0685 -36.4423 0 -0 0 -1.13228 2.71726 21.195 24.9774 -5.6139 1.57077e-05 48.8911 -7.27707 10.1225 -180 85.3943 -180 -2.78874 5.07402 -0.123601 -22.927 10.8804 -2.61229e-05 -52.4034 23.1289 5.978 -4.01166e-06 -85.5164 3.70956e-06 9.84271 3.2874 0.283096 7.70392 -7.53886 -16.3874 4.09239 -6.11976 -15.6862 -0 -0 61.5888 3.39202e-06 -2.689 7.97809 -0.373503 5.00536e-07 -72.5483 0.585498 9.8174 -59.6097 -0 -0 62.3346 -1.91402e-06 11.1257 -7.7054 -1.51043 -1.3611e-05 -25.1701 
-67.017 76.14 -18.403 -56.405 83.9945 -35.6048 0 -0 0 -1.35103 2.24483 21.1976 25.1188 -5.644 1.23082e-05 49.4192 -7.60239 10.2586 -180 87.0375 -180 -3.1951 5.12217 -0.143 -23.1205 10.4775 5.29678e-05 -51.5406 21.4249 6.20427 1.5402e-06 -84.6459 -1.69128e-06 10.3793 3.67924 0.334308 7.55419 -7.29395 -16.1032 4.07387 -6.21671 -16.5168 -0 -0 63.7721 -3.94595e-06 -4.05345 8.81628 -0.622294 -2.37273e-06 -70.12 0.690461 9.80152 -58.9614 -0 -0 63.0744 3.82012e-05 11.5506 -8.81692 -1.79428 2.93813e-06 -26.3311 
-65.915 76.106 -18.413 -55.505 83.9491 -34.8172 0 -0 0 -1.54328 1.75161 21.2412 25.2252 -5.6809 3.33679e-05 49.9865 -7.91007 10.3334 -180 88.7414 -180 -3.79891 5.08182 -0.168601 -23.2834 10.0629 5.76929e-05 -50.6839 19.6284 6.40193 0 -83.7793 0 10.9058 4.04886 0.386695 7.36915 -7.05751 -15.8308 4.06537 -6.47816 -17.4832 -0 -0 65.95 -5.79987e-06 -5.57358 9.27733 -0.901301 4.55845e-07 -67.2984 0.77788 9.74736 -58.2812 -0 -0 63.6835 -4.44482e-05 11.9273 -9.76611 -2.05202 -1.54286e-06 -27.4496 
-64.846 76.105 -18.423 -54.6397 83.9351 -34.0463 0 -0 0 -1.70356 1.2524 21.3225 25.2961 -5.71837 -1.76834e-05 50.5761 -8.20865 10.3518 -0 89.5366 -0 -4.6104 4.92314 -0.198302 -23.4044 9.6306 5.79634e-06 -49.8572 17.7802 6.54313 1.99779e-06 -82.9629 -2.25968e-06 11.4049 4.38111 0.437705 7.15884 -6.82799 -15.5739 4.0811 -6.86543 -18.5838 -0 -0 68.0978 -4.18183e-06 -7.19555 9.34861 -1.17491 3.96601e-07 -64.0287 0.852925 9.68227 -57.5841 -0 -0 64.1849 -3.93675e-05 12.2422 -10.5284 -2.27026 2.9693e-06 -28.4779 
-63.814 76.135 -18.429 -53.8108 83.9111 -33.2837 0 -0 0 -1.8286 0.75969 21.4357 25.3333 -5.75309 -3.10138e-05 51.1734 -8.50563 10.3249 8.18067e-06 87.9206 8.48259e-06 -5.62659 4.62173 -0.227207 -23.465 9.19328 -3.41048e-06 -49.0853 15.8986 6.6116 1.46366e-06 -82.2108 -1.67759e-06 11.8617 4.66405 0.484819 6.93375 -6.60348 -15.333 4.13533 -7.3373 -19.8196 -0 -0 70.1861 -7.9359e-06 -8.85294 9.05081 -1.4036 2.47254e-06 -60.4182 0.918752 9.63371 -56.8851 -0 -0 64.5941 0.000101715 12.4877 -11.0984 -2.4412 -8.88772e-07 -29.3961 
-62.818 76.193 -18.428 -52.9826 83.8842 -32.4953 0 -0 0 -1.91832 0.282403 21.5739 25.3402 -5.78358 5.39946e-05 51.7591 -8.80915 10.2667 -4.89175e-06 86.3556 -4.58976e-06 -6.82738 4.1634 -0.248499 -23.4489 8.76967 -6.24724e-06 -48.3848 13.9933 6.60478 -2.1991e-06 -81.5482 1.89643e-06 12.2623 4.89153 0.525785 6.70602 -6.38213 -15.103 4.24042 -7.85351 -21.1912 -0 -0 72.1885 -5.68606e-06 -10.4711 8.42993 -1.55199 3.68251e-06 -56.6087 0.977124 9.62595 -56.1994 -0 -0 64.9278 1.07489e-05 12.6622 -11.4873 -2.56197 -2.66425e-06 -30.2076 
-61.859 76.277 -18.417 -52.1823 83.8339 -31.7009 0 -0 0 -1.97346 -0.174104 21.7262 25.321 -5.80881 -5.05279e-05 52.3198 -9.12864 10.1871 2.51767e-06 84.9078 3.06841e-06 -8.17625 3.54914 -0.253704 -23.3478 8.37248 -7.19518e-05 -47.7659 12.0774 6.51675 -1.46691e-06 -80.9966 1.2528e-06 12.5988 5.06065 0.558996 6.48657 -6.16355 -14.8767 4.40742 -8.37803 -22.7006 -0 -0 74.0771 -3.94051e-05 -11.9744 7.5458 -1.59529 -1.04267e-05 -52.6778 1.0289 9.67783 -55.5427 -0 -0 65.1965 1.2465e-05 12.7622 -11.7217 -2.63461 -1.89145e-06 -30.93 
-60.936 76.384 -18.393 -51.407 83.7717 -30.8983 0 -0 0 -1.99667 -0.6072 21.8833 25.2784 -5.82225 2.95967e-05 52.8385 -9.48583 10.0936 -1.43164e-06 83.6183 -1.28048e-06 -9.61789 2.79903 -0.235506 -23.1546 7.99336 -9.03415e-05 -47.2329 10.1887 6.33079 0 -80.5906 0 12.8605 5.17132 0.583189 6.28581 -5.94931 -14.6403 4.64286 -8.8826 -24.3411 -0 -0 75.8305 3.04801e-05 -13.2885 6.45856 -1.52191 -7.002e-06 -48.6038 1.07551 9.80088 -54.9224 -0 -0 65.4062 1.89094e-05 12.7901 -11.8357 -2.66594 -7.54287e-06 -31.5945 
